<svg fill="none" xmlns="http://www.w3.org/2000/svg" viewBox="0 0 300 626"><path opacity=".35" d="M264.163 24.528h11.034c1.197 0 2.167.97 2.167 2.166v3.099c0 1.197-.97 2.167-2.167 2.167h-11.034a2.167 2.167 0 01-2.167-2.167v-3.099c0-1.196.97-2.166 2.167-2.166z" stroke="#000"/><path opacity=".4" d="M278.608 26.756v2.976a1.614 1.614 0 000-2.976" fill="#000"/><path d="M262.984 26.616a1.1 1.1 0 011.1-1.1h11.192a1.1 1.1 0 011.1 1.1v3.256a1.1 1.1 0 01-1.1 1.1h-11.192a1.1 1.1 0 01-1.1-1.1v-3.256z" fill="#000"/><path fill-rule="evenodd" clip-rule="evenodd" d="M252.07 25.72a6.43 6.43 0 014.429 1.77c.09.087.234.086.322-.003l.86-.868a.24.24 0 00-.002-.34 8.107 8.107 0 00-11.219 0 .24.24 0 00-.002.34l.86.868c.088.09.232.09.322.002a6.43 6.43 0 014.43-1.77zm0 2.824c.906 0 1.779.337 2.451.944a.23.23 0 00.322-.004l.859-.868a.242.242 0 00-.003-.341 5.327 5.327 0 00-7.256 0 .238.238 0 00-.003.341l.858.868c.089.089.232.09.323.004a3.651 3.651 0 012.449-.944zm1.721 1.9a.235.235 0 01-.07.171l-1.486 1.5a.233.233 0 01-.33 0l-1.486-1.5a.23.23 0 01-.07-.171.232.232 0 01.077-.169 2.546 2.546 0 013.288 0 .236.236 0 01.077.169zM241.904 24.276h-.744a.744.744 0 00-.744.744v6.448c0 .41.333.744.744.744h.744a.744.744 0 00.744-.745V25.02a.744.744 0 00-.744-.744zm-4.216 1.736h.744c.411 0 .744.333.744.744v4.712c0 .41-.333.744-.744.744h-.744a.744.744 0 01-.744-.745v-4.711c0-.411.333-.744.744-.744zm-2.728 1.735h-.744a.744.744 0 00-.744.744v2.977c0 .41.333.744.744.744h.744a.744.744 0 00.744-.745v-2.976a.744.744 0 00-.744-.744zm-3.472 1.488h-.744a.744.744 0 00-.744.745v1.488c0 .41.333.744.744.744h.744a.744.744 0 00.744-.745V29.98a.744.744 0 00-.744-.745z" fill="#000"/><path d="M31.733 32.154c2 0 3.188-1.564 3.188-4.212 0-.997-.19-1.837-.556-2.485-.528-1.008-1.438-1.553-2.588-1.553-1.711 0-2.921 1.15-2.921 2.763 0 1.515 1.09 2.615 2.588 2.615.921 0 1.668-.43 2.038-1.177h.093c0 1.799-.681 2.872-1.83 2.872-.677 0-1.2-.37-1.38-.964h-1.4c.234 1.291 1.33 2.141 2.768 2.141zm.05-3.989c-.905 0-1.548-.643-1.548-1.542 0-.877.675-1.547 1.553-1.547.877 0 1.553.68 1.553 1.569 0 .877-.66 1.52-1.559 1.52zM37.22 32.078c.518 0 .873-.37.873-.861 0-.496-.355-.861-.872-.861-.512 0-.872.365-.872.86 0 .491.36.862.872.862zm0-4.087c.518 0 .873-.365.873-.856 0-.495-.355-.86-.872-.86-.512 0-.872.365-.872.86 0 .49.36.856.872.856zM43.193 31.963h1.346v-1.466h1.063V29.31h-1.063V24.1h-1.983c-1.39 2.093-2.496 3.842-3.204 5.144v1.253h3.841v1.466zm-2.539-2.702a59.214 59.214 0 012.485-4.017h.076v4.098h-2.561v-.081zM48.6 31.963h1.405V24.1h-1.4L46.55 25.54v1.351l1.957-1.373h.092v6.446z" fill="#000"/><path d="M263.854 0H36.268A36.16 36.16 0 0010.64 10.562 36.21 36.21 0 000 36.172v553.535a36.296 36.296 0 0010.576 25.624A36.244 36.244 0 0036.146 626h227.708a36.165 36.165 0 0025.591-10.648A36.203 36.203 0 00300 589.707V36.172a36.047 36.047 0 00-10.544-25.62A35.997 35.997 0 00263.854 0zm25.923 591.168c0 15.833-15.943 24.358-23.489 24.358H34.686c-7.668 0-23.49-8.525-23.49-24.358V37.146c0-12.788 11.076-26.185 23.611-26.185h34.686c3.043 0 4.99 2.192 5.72 6.211 2.312 14.25 10.101 15.346 12.414 15.346h125.476c2.313 0 10.102-.974 12.536-15.346.73-4.019 2.677-6.21 5.72-6.21h34.686c12.535 0 23.854 13.396 23.854 26.184-.122 7.186-.122 538.798-.122 554.022z" fill="#000000"/></svg>
