<?xml version="1.0" encoding="utf-8"?>
<!-- Generator: Adobe Illustrator 27.0.1, SVG Export Plug-In . SVG Version: 6.00 Build 0)  -->
<svg version="1.1" id="Layer_1" xmlns="http://www.w3.org/2000/svg" xmlns:xlink="http://www.w3.org/1999/xlink" x="0px" y="0px"
	 viewBox="0 0 1024 768" style="enable-background:new 0 0 1024 768;" xml:space="preserve">
<style type="text/css">
	.st0{fill:#22ECF6;}
	.st1{fill:#8E5BFE;}
</style>
<g>
	<polygon class="st0" points="765.42,307.29 747.86,274.42 643.91,444.18 662.66,475.07 	"/>
	<path class="st1" d="M823.94,316.26c-14.24-26.81-28.66-53.53-43.44-80.04c-4.75-8.51-10.84-15.06-18.15-19.55
		c-5.17-3.22-10.95-5.41-17.28-6.56c-3.3-0.59-6.73-0.92-10.33-0.95c-29.71-0.32-59.44-0.32-89.17,0.02
		c-18.58,0.2-33.42,8.39-43.54,24c-9.63,14.86-18.57,30.2-27.76,45.35c-4.42,7.27-4.66,14.8-0.27,22.06
		c7.64,12.66,15.3,25.3,23.02,37.91l0.62,1c5.25,8.62,10.54,17.21,15.85,25.8c0.54,0.88,1.12,1.68,1.72,2.43
		c4.76,5.9,11.48,8.04,19.43,7.02c6.47-0.83,10.87-4.42,14.38-9.36c0.54-0.77,1.07-1.56,1.57-2.39c2.43-3.99,4.87-7.98,7.3-11.98
		c19.98-32.71,39.97-65.39,60.05-98.02c1-1.63,2.1-3.05,3.27-4.31c0.06-0.08,0.12-0.14,0.18-0.2c6.77-7.12,16-8.21,23.36-3.37
		c2.98,1.95,5.64,4.85,7.71,8.72c0.32,0.59,0.64,1.18,0.94,1.77c0.95,1.72,37.79,70.89,38.11,71.48c1.16,2.18,2.31,4.34,3.48,6.52
		c3.93,7.35,3.83,14.37-0.76,21.32c-14,21.26-27.99,42.54-42.01,63.78c-3.08,4.67-6.15,9.35-9.25,14.02l-1.06,1.62
		c-14.59,22.14-29.25,44.28-43.94,66.35c-0.53,0.79-1.06,1.59-1.59,2.37c-0.47,0.71-1.01,1.39-1.62,2.06
		c-0.42,0.47-0.88,0.92-1.35,1.36c-2.4,2.24-5.41,4.07-8.3,5.1c-5.66,2.04-10.65,1.29-15.14-2.01c-1.63-1.21-3.22-2.77-4.72-4.66
		c-1.04-1.29-2.06-2.75-3.04-4.35c-2.53-4.13-128.85-211.34-169.23-277.59c-11.69-19.17-29.87-18.95-40.68,0.56
		c-15.47,27.9-30.82,55.87-46.27,83.79c-10.86,19.6-10.39,38.77,1.33,57.93c28.37,46.35,56.57,92.8,84.88,139.18v0.02
		c-0.24,0.38-0.48,0.74-0.74,1.12c-2.49,3.75-6.99,7-11.27,8.53c-9.15,3.3-16.6-0.73-22.89-11.02
		C400.92,410.55,344.53,318,288.11,225.47c-11.7-19.16-29.87-18.93-40.68,0.56c-15.47,27.91-30.8,55.87-46.27,83.79
		c-10.87,19.61-10.39,38.77,1.35,57.95c32.95,53.86,65.69,107.88,98.65,161.76c13.84,22.62,34.33,33.93,60.77,34.3
		c15.3,0.23,30.61,0.05,45.91,0.05c15.76,0,31.5,0.26,47.24-0.06c23.67-0.45,42.89-9.95,56.27-29.05l0.02,0.02
		c13.56,17.47,32.21,26.24,55.44,26.55c15.3,0.23,30.61,0.05,45.91,0.05c15.76,0,31.5,0.24,47.24-0.06
		c24.54-0.48,44.31-10.68,57.78-31.24c34.98-53.41,69.67-106.99,104.16-160.7C832.83,352.34,833.46,334.2,823.94,316.26z"/>
</g>
</svg>
