<svg xmlns="http://www.w3.org/2000/svg" fill="none" viewBox="0 0 300 626">
    <path fill="#2C2C2C" d="M263.854 0H36.268A36.16 36.16 0 0 0 10.64 10.562 36.21 36.21 0 0 0 0 36.172v553.535a36.296 36.296 0 0 0 10.576 25.624A36.244 36.244 0 0 0 36.146 626h227.708a36.145 36.145 0 0 0 25.591-10.648A36.203 36.203 0 0 0 300 589.707V36.172a36.047 36.047 0 0 0-10.544-25.62A35.997 35.997 0 0 0 263.854 0Z"/>
    <path fill="#fff" d="M289.777 10.961H10.71v604.687h279.067V10.961Z"/>
    <path fill="#666" d="M248.461 23.47a.494.494 0 0 1 .093.717l-4.78 5.966a1.011 1.011 0 0 1-1.581 0l-4.78-5.966a.494.494 0 0 1 .093-.716c.833-.576 2.804-1.72 5.477-1.72 2.67 0 4.644 1.145 5.478 1.72ZM275.533 23.041a.775.775 0 0 0-.775-.774h-.775v-1.034h-3.1v1.034h-.775a.775.775 0 0 0-.775.774v7.75c0 .428.347.776.775.776h4.65a.775.775 0 0 0 .775-.776v-7.75ZM260.701 22.115a.517.517 0 0 1 .882.366v8.052c0 .571-.462 1.034-1.033 1.034h-8.053a.517.517 0 0 1-.365-.882l8.569-8.57ZM27.91 27.118c-.43.456-.934.684-1.51.684-.678 0-1.218-.237-1.621-.71-.403-.477-.604-1.102-.604-1.876 0-.508.102-.97.307-1.382.205-.414.497-.735.874-.965.378-.23.816-.344 1.314-.344.777 0 1.394.29 1.85.869.455.58.683 1.354.683 2.326v.36c0 1.392-.315 2.453-.943 3.184-.629.731-1.567 1.102-2.814 1.112h-.153v-1.064h.185c.76-.011 1.342-.193 1.749-.546.406-.357.633-.906.683-1.648Zm-1.24-.323c.258 0 .5-.074.726-.222.226-.149.401-.354.525-.615v-.503c0-.569-.117-1.026-.35-1.372-.233-.346-.535-.52-.906-.52-.37 0-.668.154-.89.461-.219.304-.328.689-.328 1.155 0 .484.11.874.333 1.171.223.297.52.445.89.445ZM31.285 28.988c.24 0 .425.07.556.207a.7.7 0 0 1 .196.509c0 .2-.065.369-.196.503-.13.13-.316.196-.556.196-.23 0-.412-.065-.546-.196a.672.672 0 0 1-.201-.503.7.7 0 0 1 .196-.509c.13-.138.314-.207.55-.207Zm0-4.497c.24 0 .425.068.556.206a.7.7 0 0 1 .196.509c0 .201-.065.369-.196.503-.13.13-.316.196-.556.196-.23 0-.412-.065-.546-.196a.672.672 0 0 1-.201-.503.7.7 0 0 1 .196-.509c.13-.138.314-.206.55-.206ZM37.663 27.595h.96v1.033h-.96v1.717h-1.287v-1.717h-3.332l-.037-.784 3.327-5.213h1.33v4.964Zm-3.305 0h2.018v-3.221l-.095.17-1.923 3.051ZM42.961 30.345H41.68V24.15l-1.891.647v-1.086l3.009-1.107h.164v7.74Z"/>
    <path fill="#302D2D" d="m37.042 53.075-1.117-1.117-4.425 4.426-4.425-4.426-1.117 1.117 4.426 4.425-4.426 4.425 1.117 1.117 4.425-4.426 4.425 4.426 1.117-1.117-4.426-4.425 4.426-4.425ZM268.5 54.333c.871 0 1.583-.712 1.583-1.583 0-.87-.712-1.583-1.583-1.583s-1.583.712-1.583 1.583c0 .87.712 1.583 1.583 1.583Zm0 1.584c-.871 0-1.583.712-1.583 1.583 0 .87.712 1.583 1.583 1.583s1.583-.712 1.583-1.583c0-.87-.712-1.583-1.583-1.583Zm0 4.75c-.871 0-1.583.712-1.583 1.583 0 .87.712 1.583 1.583 1.583s1.583-.712 1.583-1.583c0-.87-.712-1.583-1.583-1.583Z"/>
    <path fill="#000000" d="M263.854 0H36.268A36.16 36.16 0 0 0 10.64 10.562 36.21 36.21 0 0 0 0 36.172v553.535a36.296 36.296 0 0 0 10.576 25.624A36.244 36.244 0 0 0 36.146 626h227.708a36.174 36.174 0 0 0 25.591-10.648A36.203 36.203 0 0 0 300 589.707V36.172a36.047 36.047 0 0 0-10.544-25.62A35.997 35.997 0 0 0 263.854 0Zm25.923 591.168c0 15.833-15.943 24.358-23.489 24.358H34.686c-7.668 0-23.49-8.525-23.49-24.358V37.146c0-12.788 11.076-26.185 23.611-26.185H266.045c12.535 0 23.854 13.397 23.854 26.185-.122 7.186-.122 538.799-.122 554.022Z"/>
</svg>
